<svg xmlns="http://www.w3.org/2000/svg" xmlns:xlink="http://www.w3.org/1999/xlink" version="1.1" class="marks" width="442" height="347" viewBox="0 0 442 347"><rect width="442" height="347" fill="white"/><g fill="none" stroke-miterlimit="10" transform="translate(41,10)"><g class="mark-group role-frame root" role="graphics-object" aria-roledescription="group mark container"><g transform="translate(0,0)"><path class="background" aria-hidden="true" d="M0.5,0.5h300v300h-300Z" stroke="#ddd"/><g><g class="mark-group role-axis" aria-hidden="true"><g transform="translate(0.5,300.5)"><path class="background" aria-hidden="true" d="M0,0h0v0h0Z" pointer-events="none"/><g><g class="mark-rule role-axis-grid" pointer-events="none"><line transform="translate(0,-300)" x2="0" y2="300" stroke="#ddd" stroke-width="1" opacity="1"/><line transform="translate(30,-300)" x2="0" y2="300" stroke="#ddd" stroke-width="1" opacity="1"/><line transform="translate(60,-300)" x2="0" y2="300" stroke="#ddd" stroke-width="1" opacity="1"/><line transform="translate(90,-300)" x2="0" y2="300" stroke="#ddd" stroke-width="1" opacity="1"/><line transform="translate(120,-300)" x2="0" y2="300" stroke="#ddd" stroke-width="1" opacity="1"/><line transform="translate(150,-300)" x2="0" y2="300" stroke="#ddd" stroke-width="1" opacity="1"/><line transform="translate(180,-300)" x2="0" y2="300" stroke="#ddd" stroke-width="1" opacity="1"/><line transform="translate(210,-300)" x2="0" y2="300" stroke="#ddd" stroke-width="1" opacity="1"/><line transform="translate(240,-300)" x2="0" y2="300" stroke="#ddd" stroke-width="1" opacity="1"/><line transform="translate(270,-300)" x2="0" y2="300" stroke="#ddd" stroke-width="1" opacity="1"/><line transform="translate(300,-300)" x2="0" y2="300" stroke="#ddd" stroke-width="1" opacity="1"/></g></g><path class="foreground" aria-hidden="true" d="" pointer-events="none" display="none"/></g></g><g class="mark-group role-axis" aria-hidden="true"><g transform="translate(0.5,0.5)"><path class="background" aria-hidden="true" d="M0,0h0v0h0Z" pointer-events="none"/><g><g class="mark-rule role-axis-grid" pointer-events="none"><line transform="translate(0,300)" x2="300" y2="0" stroke="#ddd" stroke-width="1" opacity="1"/><line transform="translate(0,270)" x2="300" y2="0" stroke="#ddd" stroke-width="1" opacity="1"/><line transform="translate(0,240)" x2="300" y2="0" stroke="#ddd" stroke-width="1" opacity="1"/><line transform="translate(0,210)" x2="300" y2="0" stroke="#ddd" stroke-width="1" opacity="1"/><line transform="translate(0,180)" x2="300" y2="0" stroke="#ddd" stroke-width="1" opacity="1"/><line transform="translate(0,150)" x2="300" y2="0" stroke="#ddd" stroke-width="1" opacity="1"/><line transform="translate(0,120)" x2="300" y2="0" stroke="#ddd" stroke-width="1" opacity="1"/><line transform="translate(0,90)" x2="300" y2="0" stroke="#ddd" stroke-width="1" opacity="1"/><line transform="translate(0,60)" x2="300" y2="0" stroke="#ddd" stroke-width="1" opacity="1"/><line transform="translate(0,30)" x2="300" y2="0" stroke="#ddd" stroke-width="1" opacity="1"/><line transform="translate(0,0)" x2="300" y2="0" stroke="#ddd" stroke-width="1" opacity="1"/></g></g><path class="foreground" aria-hidden="true" d="" pointer-events="none" display="none"/></g></g><g class="mark-group role-axis" role="graphics-symbol" aria-roledescription="axis" aria-label="X-axis titled 'epoch' for a linear scale with values from 0 to 200"><g transform="translate(0.5,300.5)"><path class="background" aria-hidden="true" d="M0,0h0v0h0Z" pointer-events="none"/><g><g class="mark-rule role-axis-tick" pointer-events="none"><line transform="translate(0,0)" x2="0" y2="5" stroke="#888" stroke-width="1" opacity="1"/><line transform="translate(30,0)" x2="0" y2="5" stroke="#888" stroke-width="1" opacity="1"/><line transform="translate(60,0)" x2="0" y2="5" stroke="#888" stroke-width="1" opacity="1"/><line transform="translate(90,0)" x2="0" y2="5" stroke="#888" stroke-width="1" opacity="1"/><line transform="translate(120,0)" x2="0" y2="5" stroke="#888" stroke-width="1" opacity="1"/><line transform="translate(150,0)" x2="0" y2="5" stroke="#888" stroke-width="1" opacity="1"/><line transform="translate(180,0)" x2="0" y2="5" stroke="#888" stroke-width="1" opacity="1"/><line transform="translate(210,0)" x2="0" y2="5" stroke="#888" stroke-width="1" opacity="1"/><line transform="translate(240,0)" x2="0" y2="5" stroke="#888" stroke-width="1" opacity="1"/><line transform="translate(270,0)" x2="0" y2="5" stroke="#888" stroke-width="1" opacity="1"/><line transform="translate(300,0)" x2="0" y2="5" stroke="#888" stroke-width="1" opacity="1"/></g><g class="mark-text role-axis-label" pointer-events="none"><text text-anchor="start" transform="translate(0,15)" font-family="sans-serif" font-size="10px" fill="#000" opacity="1">0</text><text text-anchor="middle" transform="translate(30,15)" font-family="sans-serif" font-size="10px" fill="#000" opacity="1">20</text><text text-anchor="middle" transform="translate(60,15)" font-family="sans-serif" font-size="10px" fill="#000" opacity="1">40</text><text text-anchor="middle" transform="translate(90,15)" font-family="sans-serif" font-size="10px" fill="#000" opacity="1">60</text><text text-anchor="middle" transform="translate(120,15)" font-family="sans-serif" font-size="10px" fill="#000" opacity="1">80</text><text text-anchor="middle" transform="translate(150,15)" font-family="sans-serif" font-size="10px" fill="#000" opacity="1">100</text><text text-anchor="middle" transform="translate(180,15)" font-family="sans-serif" font-size="10px" fill="#000" opacity="1">120</text><text text-anchor="middle" transform="translate(210,15)" font-family="sans-serif" font-size="10px" fill="#000" opacity="1">140</text><text text-anchor="middle" transform="translate(240,15)" font-family="sans-serif" font-size="10px" fill="#000" opacity="1">160</text><text text-anchor="middle" transform="translate(270,15)" font-family="sans-serif" font-size="10px" fill="#000" opacity="1">180</text><text text-anchor="end" transform="translate(300,15)" font-family="sans-serif" font-size="10px" fill="#000" opacity="1">200</text></g><g class="mark-rule role-axis-domain" pointer-events="none"><line transform="translate(0,0)" x2="300" y2="0" stroke="#888" stroke-width="1" opacity="1"/></g><g class="mark-text role-axis-title" pointer-events="none"><text text-anchor="middle" transform="translate(150,30)" font-family="sans-serif" font-size="11px" font-weight="bold" fill="#000" opacity="1">epoch</text></g></g><path class="foreground" aria-hidden="true" d="" pointer-events="none" display="none"/></g></g><g class="mark-group role-axis" role="graphics-symbol" aria-roledescription="axis" aria-label="Y-axis titled 'word error rate' for a linear scale with values from 0.0 to 1.0"><g transform="translate(0.5,0.5)"><path class="background" aria-hidden="true" d="M0,0h0v0h0Z" pointer-events="none"/><g><g class="mark-rule role-axis-tick" pointer-events="none"><line transform="translate(0,300)" x2="-5" y2="0" stroke="#888" stroke-width="1" opacity="1"/><line transform="translate(0,270)" x2="-5" y2="0" stroke="#888" stroke-width="1" opacity="1"/><line transform="translate(0,240)" x2="-5" y2="0" stroke="#888" stroke-width="1" opacity="1"/><line transform="translate(0,210)" x2="-5" y2="0" stroke="#888" stroke-width="1" opacity="1"/><line transform="translate(0,180)" x2="-5" y2="0" stroke="#888" stroke-width="1" opacity="1"/><line transform="translate(0,150)" x2="-5" y2="0" stroke="#888" stroke-width="1" opacity="1"/><line transform="translate(0,120)" x2="-5" y2="0" stroke="#888" stroke-width="1" opacity="1"/><line transform="translate(0,90)" x2="-5" y2="0" stroke="#888" stroke-width="1" opacity="1"/><line transform="translate(0,60)" x2="-5" y2="0" stroke="#888" stroke-width="1" opacity="1"/><line transform="translate(0,30)" x2="-5" y2="0" stroke="#888" stroke-width="1" opacity="1"/><line transform="translate(0,0)" x2="-5" y2="0" stroke="#888" stroke-width="1" opacity="1"/></g><g class="mark-text role-axis-label" pointer-events="none"><text text-anchor="end" transform="translate(-7,303)" font-family="sans-serif" font-size="10px" fill="#000" opacity="1">0.0</text><text text-anchor="end" transform="translate(-7,273)" font-family="sans-serif" font-size="10px" fill="#000" opacity="1">0.1</text><text text-anchor="end" transform="translate(-7,243)" font-family="sans-serif" font-size="10px" fill="#000" opacity="1">0.2</text><text text-anchor="end" transform="translate(-7,213)" font-family="sans-serif" font-size="10px" fill="#000" opacity="1">0.3</text><text text-anchor="end" transform="translate(-7,183)" font-family="sans-serif" font-size="10px" fill="#000" opacity="1">0.4</text><text text-anchor="end" transform="translate(-7,153)" font-family="sans-serif" font-size="10px" fill="#000" opacity="1">0.5</text><text text-anchor="end" transform="translate(-7,123)" font-family="sans-serif" font-size="10px" fill="#000" opacity="1">0.6</text><text text-anchor="end" transform="translate(-7,93.00000000000001)" font-family="sans-serif" font-size="10px" fill="#000" opacity="1">0.7</text><text text-anchor="end" transform="translate(-7,62.999999999999986)" font-family="sans-serif" font-size="10px" fill="#000" opacity="1">0.8</text><text text-anchor="end" transform="translate(-7,32.99999999999999)" font-family="sans-serif" font-size="10px" fill="#000" opacity="1">0.9</text><text text-anchor="end" transform="translate(-7,3)" font-family="sans-serif" font-size="10px" fill="#000" opacity="1">1.0</text></g><g class="mark-rule role-axis-domain" pointer-events="none"><line transform="translate(0,300)" x2="0" y2="-300" stroke="#888" stroke-width="1" opacity="1"/></g><g class="mark-text role-axis-title" pointer-events="none"><text text-anchor="middle" transform="translate(-24.9013671875,150) rotate(-90) translate(0,-2)" font-family="sans-serif" font-size="11px" font-weight="bold" fill="#000" opacity="1">word error rate</text></g></g><path class="foreground" aria-hidden="true" d="" pointer-events="none" display="none"/></g></g><g class="mark-group role-scope pathgroup" role="graphics-object" aria-roledescription="group mark container"><g transform="translate(0,0)"><path class="background" aria-hidden="true" d="M0,0h300v300h-300Z"/><g><g class="mark-line role-mark marks" role="graphics-object" aria-roledescription="line mark container"><path aria-label="epoch: 0; word error rate: 1; type: EMG; wer: 1" role="graphics-symbol" aria-roledescription="line mark" d="M0,0L1.5,15.789L3,18.725L4.5,24.914L6,31.5L7.5,37.292L9,41.259L10.5,51.336L12,56.969L13.5,61.809L15,65.538L16.5,71.41L18,76.091L19.5,72.6L21,83.787L22.5,93.864L24,93.229L25.5,97.197L27,100.053L28.5,99.815L30,106.004L31.5,116.08L33,114.89L34.5,119.095L36,121.873L37.5,121.476L39,125.919L40.5,130.918L42,135.599L43.5,139.963L45,140.677L46.5,141.232L48,135.52L49.5,144.089L51,147.739L52.5,148.611L54,151.389L55.5,155.197L57,155.911L58.5,158.609L60,162.497L61.5,157.895L63,159.323L64.5,164.242L66,164.956L67.5,162.576L69,167.495L70.5,168.527L72,166.702L73.5,174.478L75,172.415L76.5,172.732L78,175.906L79.5,172.097L81,177.096L82.5,177.334L84,178.524L85.5,177.81L87,176.223L88.5,177.334L90,179.952L91.5,177.889L93,177.255L94.5,179.08L96,181.46L97.5,182.809L99,179.318L100.5,183.999L102,179.318L103.5,183.444L105,185.506L106.5,185.506L108,185.506L109.5,184.078L111,186.459L112.5,187.966L114,188.284L115.5,186.141L117,186.538L118.5,188.204L120,187.807L121.5,187.173L123,191.537L124.5,189.156L126,188.204L127.5,187.331L129,187.569L130.5,187.887L132,191.457L133.5,188.839L135,190.108L136.5,189.553L138,188.442L139.5,187.649L141,191.854L142.5,190.823L144,191.775L145.5,188.918L147,188.522L148.5,189.156L150,188.284L151.5,188.284L153,192.568L154.5,187.807L156,193.203L157.5,192.092L159,190.585L160.5,190.743L162,191.775L163.5,190.426L165,186.379L166.5,187.252L168,191.299L169.5,192.885L171,190.188L172.5,192.647L174,189.394L175.5,190.346L177,187.093L178.5,191.299L180,190.823L181.5,191.854L183,193.282L184.5,191.14L186,187.569L187.5,201.137L189,200.82L190.5,202.883L192,199.868L193.5,198.836L195,199.154L196.5,198.519L198,199.868L199.5,196.773L201,199.55L202.5,199.392L204,199.074L205.5,196.139L207,198.44L208.5,199.074L210,196.694L211.5,196.615L213,196.139L214.5,200.185L216,197.725L217.5,199.471L219,197.725L220.5,198.281L222,197.408L223.5,197.091L225,203.2L226.5,203.359L228,204.866L229.5,202.724L231,201.851L232.5,200.026L234,200.741L235.5,201.137L237,202.486L238.5,200.661L240,203.28L241.5,200.582L243,199.947L244.5,200.82L246,201.455L247.5,200.661L249,200.899L250.5,200.741L252,201.375L253.5,200.503L255,201.058L256.5,202.01L258,202.486L259.5,200.503L261,201.137L262.5,204.232L264,202.089L265.5,202.407L267,202.883L268.5,203.438L270,202.645L271.5,205.263L273,203.597L274.5,200.82L276,203.28L277.5,202.565L279,204.549L280.5,203.518L282,202.01L283.5,201.534L285,201.772L286.5,201.772L288,201.534L289.5,203.676L291,202.565L292.5,203.676L294,202.486L295.5,203.042L297,200.979L298.5,201.931" stroke="#4c78a8" stroke-width="2"/></g></g><path class="foreground" aria-hidden="true" d="" display="none"/></g><g transform="translate(0,0)"><path class="background" aria-hidden="true" d="M0,0h300v300h-300Z"/><g><g class="mark-line role-mark marks" role="graphics-object" aria-roledescription="line mark container"><path aria-label="epoch: 0; word error rate: 0.95001322031; type: EMG &amp; Audio; wer: 0.95001322031" role="graphics-symbol" aria-roledescription="line mark" d="M0,14.996L1.5,19.598L3,31.182L4.5,29.199L6,43.163L7.5,49.431L9,58.556L10.5,67.998L12,59.429L13.5,74.028L15,81.962L16.5,87.913L18,86.247L19.5,96.482L21,92.912L22.5,99.815L24,106.797L25.5,111.955L27,113.621L28.5,116.795L30,124.253L31.5,122.349L33,126.871L34.5,134.409L36,132.346L37.5,137.027L39,138.773L40.5,133.853L42,142.74L43.5,144.01L45,155.832L46.5,158.371L48,153.69L49.5,160.037L51,155.99L52.5,165.908L54,164.004L55.5,169.796L57,164.639L58.5,169.003L60,170.907L61.5,171.78L63,175.985L64.5,176.223L66,180.428L67.5,176.144L69,181.063L70.5,180.825L72,180.19L73.5,179.794L75,180.666L76.5,186.459L78,180.905L79.5,188.125L81,185.586L82.5,185.506L84,188.76L85.5,188.442L87,190.029L88.5,187.331L90,189.236L91.5,187.649L93,194.552L94.5,187.49L96,189.077L97.5,191.775L99,189.632L100.5,193.996L102,191.616L103.5,192.33L105,193.362L106.5,193.282L108,194.472L109.5,197.964L111,194.71L112.5,191.378L114,190.346L115.5,195.504L117,196.535L118.5,197.329L120,192.409L121.5,193.838L123,199.392L124.5,194.552L126,193.124L127.5,194.79L129,196.456L130.5,195.583L132,194.71L133.5,197.646L135,192.965L136.5,197.011L138,194.948L139.5,197.805L141,197.408L142.5,196.059L144,193.044L145.5,197.805L147,198.916L148.5,196.297L150,198.122L151.5,198.995L153,200.026L154.5,200.106L156,200.185L157.5,196.694L159,201.375L160.5,195.583L162,197.329L163.5,199.233L165,200.106L166.5,203.994L168,197.964L169.5,199.947L171,196.377L172.5,200.026L174,198.44L175.5,200.026L177,199.709L178.5,199.788L180,198.916L181.5,199.947L183,199.868L184.5,199.154L186,196.139L187.5,208.12L189,214.943L190.5,213.753L192,212.325L193.5,212.007L195,211.135L196.5,211.69L198,210.262L199.5,208.754L201,210.5L202.5,208.278L204,209.706L205.5,208.754L207,210.817L208.5,210.182L210,208.358L211.5,209.31L213,208.913L214.5,211.135L216,209.706L217.5,208.358L219,213.356L220.5,208.675L222,208.754L223.5,209.548L225,214.388L226.5,214.388L228,215.34L229.5,217.165L231,215.816L232.5,214.07L234,214.705L235.5,213.118L237,212.88L238.5,214.943L240,214.229L241.5,216.133L243,212.563L244.5,214.784L246,213.594L247.5,215.102L249,213.436L250.5,214.943L252,213.277L253.5,215.419L255,214.15L256.5,214.229L258,212.245L259.5,214.15L261,214.07L262.5,217.641L264,217.8L265.5,218.355L267,217.561L268.5,217.561L270,216.53L271.5,216.213L273,218.514L274.5,216.609L276,216.53L277.5,217.8L279,217.085L280.5,217.006L282,216.213L283.5,217.085L285,217.561L286.5,218.117L288,216.927L289.5,217.085L291,215.657L292.5,215.578L294,215.975L295.5,215.975L297,215.578L298.5,217.641" stroke="#f58518" stroke-width="2"/></g></g><path class="foreground" aria-hidden="true" d="" display="none"/></g><g transform="translate(0,0)"><path class="background" aria-hidden="true" d="M0,0h300v300h-300Z"/><g><g class="mark-line role-mark marks" role="graphics-object" aria-roledescription="line mark container"><path aria-label="epoch: 0; word error rate: 0.947632908821; type: crossCon; wer: 0.947632908821" role="graphics-symbol" aria-roledescription="line mark" d="M0,15.71L1.5,27.929L3,42.687L4.5,45.544L6,57.445L7.5,68.236L9,74.742L10.5,89.659L12,84.898L13.5,103.306L15,107.432L16.5,111.955L18,117.35L19.5,125.046L21,117.033L22.5,133.774L24,135.678L25.5,138.614L27,142.185L28.5,146.072L30,150.198L31.5,146.072L33,156.467L34.5,160.275L36,154.959L37.5,159.482L39,162.814L40.5,166.543L42,167.257L43.5,172.573L45,172.732L46.5,173.367L48,177.572L49.5,175.826L51,176.144L52.5,181.539L54,181.539L55.5,184.951L57,177.651L58.5,183.047L60,187.093L61.5,188.601L63,190.426L64.5,189.474L66,191.537L67.5,192.885L69,191.299L70.5,191.299L72,191.775L73.5,192.727L75,194.472L76.5,194.314L78,194.076L79.5,197.646L81,193.124L82.5,195.901L84,197.408L85.5,198.836L87,199.55L88.5,198.122L90,197.091L91.5,197.408L93,201.613L94.5,198.678L96,199.392L97.5,204.549L99,199.074L100.5,201.455L102,199.392L103.5,200.264L105,201.693L106.5,202.01L108,204.152L109.5,204.073L111,205.501L112.5,202.486L114,201.931L115.5,200.344L117,204.073L118.5,203.756L120,200.899L121.5,200.899L123,204.708L124.5,199.074L126,200.741L127.5,201.455L129,203.835L130.5,202.169L132,205.025L133.5,198.043L135,202.565L136.5,204.866L138,202.803L139.5,206.136L141,205.977L142.5,207.802L144,204.39L145.5,207.485L147,205.263L148.5,206.215L150,207.643L151.5,202.645L153,204.47L154.5,204.866L156,205.263L157.5,202.327L159,202.407L160.5,206.057L162,199.312L163.5,205.422L165,204.549L166.5,205.263L168,205.422L169.5,202.248L171,202.327L172.5,204.232L174,201.534L175.5,202.565L177,202.962L178.5,204.787L180,202.565L181.5,206.295L183,205.898L184.5,205.898L186,201.455L187.5,217.323L189,218.117L190.5,218.672L192,219.704L193.5,218.117L195,217.244L196.5,215.578L198,214.388L199.5,211.69L201,214.308L202.5,215.499L204,214.705L205.5,217.403L207,216.054L208.5,215.816L210,215.022L211.5,213.118L213,212.563L214.5,215.895L216,213.991L217.5,217.482L219,213.753L220.5,214.864L222,213.753L223.5,211.69L225,220.339L226.5,221.449L228,220.735L229.5,222.64L231,221.449L232.5,221.132L234,220.497L235.5,221.846L237,218.672L238.5,220.497L240,221.608L241.5,220.973L243,220.497L244.5,218.752L246,220.18L247.5,221.529L249,216.847L250.5,223.592L252,220.418L253.5,220.339L255,219.069L256.5,221.608L258,217.8L259.5,221.449L261,216.689L262.5,224.068L264,222.56L265.5,222.243L267,223.195L268.5,223.909L270,221.925L271.5,223.274L273,223.75L274.5,222.322L276,223.433L277.5,223.671L279,225.02L280.5,223.354L282,223.512L283.5,223.116L285,221.132L286.5,222.243L288,223.433L289.5,223.354L291,219.783L292.5,222.401L294,222.56L295.5,224.544L297,224.306L298.5,222.322" stroke="#e45756" stroke-width="2"/></g></g><path class="foreground" aria-hidden="true" d="" display="none"/></g></g><g class="mark-group role-legend" role="graphics-symbol" aria-roledescription="legend" aria-label="Symbol legend titled 'type' for stroke color with 3 values: EMG, EMG &amp; Audio, crossCon"><g transform="translate(319,0)"><path class="background" aria-hidden="true" d="M0,0h77v53h-77Z" pointer-events="none"/><g><g class="mark-group role-legend-entry"><g transform="translate(0,16)"><path class="background" aria-hidden="true" d="M0,0h0v0h0Z" pointer-events="none"/><g><g class="mark-group role-scope" role="graphics-object" aria-roledescription="group mark container"><g transform="translate(0,0)"><path class="background" aria-hidden="true" d="M0,0h76.029296875v11h-76.029296875Z" pointer-events="none" opacity="1"/><g><g class="mark-symbol role-legend-symbol" pointer-events="none"><path transform="translate(6,6)" d="M-5,0L5,0" stroke="#4c78a8" stroke-width="1.5" opacity="1"/></g><g class="mark-text role-legend-label" pointer-events="none"><text text-anchor="start" transform="translate(16,9)" font-family="sans-serif" font-size="10px" fill="#000" opacity="1">EMG</text></g></g><path class="foreground" aria-hidden="true" d="" pointer-events="none" display="none"/></g><g transform="translate(0,13)"><path class="background" aria-hidden="true" d="M0,0h76.029296875v11h-76.029296875Z" pointer-events="none" opacity="1"/><g><g class="mark-symbol role-legend-symbol" pointer-events="none"><path transform="translate(6,6)" d="M-5,0L5,0" stroke="#f58518" stroke-width="1.5" opacity="1"/></g><g class="mark-text role-legend-label" pointer-events="none"><text text-anchor="start" transform="translate(16,9)" font-family="sans-serif" font-size="10px" fill="#000" opacity="1">EMG &amp; Audio</text></g></g><path class="foreground" aria-hidden="true" d="" pointer-events="none" display="none"/></g><g transform="translate(0,26)"><path class="background" aria-hidden="true" d="M0,0h76.029296875v11h-76.029296875Z" pointer-events="none" opacity="1"/><g><g class="mark-symbol role-legend-symbol" pointer-events="none"><path transform="translate(6,6)" d="M-5,0L5,0" stroke="#e45756" stroke-width="1.5" opacity="1"/></g><g class="mark-text role-legend-label" pointer-events="none"><text text-anchor="start" transform="translate(16,9)" font-family="sans-serif" font-size="10px" fill="#000" opacity="1">crossCon</text></g></g><path class="foreground" aria-hidden="true" d="" pointer-events="none" display="none"/></g></g></g><path class="foreground" aria-hidden="true" d="" pointer-events="none" display="none"/></g></g><g class="mark-text role-legend-title" pointer-events="none"><text text-anchor="start" transform="translate(0,9)" font-family="sans-serif" font-size="11px" font-weight="bold" fill="#000" opacity="1">type</text></g></g><path class="foreground" aria-hidden="true" d="" pointer-events="none" display="none"/></g></g></g><path class="foreground" aria-hidden="true" d="" display="none"/></g></g></g></svg>