<svg xmlns="http://www.w3.org/2000/svg" xmlns:xlink="http://www.w3.org/1999/xlink" version="1.1" class="marks" width="881" height="363" viewBox="0 0 881 363"><rect width="881" height="363" fill="white"/><g fill="none" stroke-miterlimit="10" transform="translate(56,14)"><g class="mark-group role-frame root" role="graphics-object" aria-roledescription="group mark container"><g transform="translate(0,0)"><path class="background" aria-hidden="true" d="M0,0h0v300h0Z"/><g><g class="mark-group role-scope concat_0_group" role="graphics-object" aria-roledescription="group mark container"><g transform="translate(0,0)"><path class="background" aria-hidden="true" d="M0.5,0.5h300v300h-300Z" stroke="#ddd"/><g><g class="mark-group role-axis" aria-hidden="true"><g transform="translate(0.5,300.5)"><path class="background" aria-hidden="true" d="M0,0h0v0h0Z" pointer-events="none"/><g><g class="mark-rule role-axis-grid" pointer-events="none"><line transform="translate(0,-300)" x2="0" y2="300" stroke="#ddd" stroke-width="1" opacity="1"/><line transform="translate(30,-300)" x2="0" y2="300" stroke="#ddd" stroke-width="1" opacity="1"/><line transform="translate(60,-300)" x2="0" y2="300" stroke="#ddd" stroke-width="1" opacity="1"/><line transform="translate(90,-300)" x2="0" y2="300" stroke="#ddd" stroke-width="1" opacity="1"/><line transform="translate(120,-300)" x2="0" y2="300" stroke="#ddd" stroke-width="1" opacity="1"/><line transform="translate(150,-300)" x2="0" y2="300" stroke="#ddd" stroke-width="1" opacity="1"/><line transform="translate(180,-300)" x2="0" y2="300" stroke="#ddd" stroke-width="1" opacity="1"/><line transform="translate(210,-300)" x2="0" y2="300" stroke="#ddd" stroke-width="1" opacity="1"/><line transform="translate(240,-300)" x2="0" y2="300" stroke="#ddd" stroke-width="1" opacity="1"/><line transform="translate(270,-300)" x2="0" y2="300" stroke="#ddd" stroke-width="1" opacity="1"/><line transform="translate(300,-300)" x2="0" y2="300" stroke="#ddd" stroke-width="1" opacity="1"/></g></g><path class="foreground" aria-hidden="true" d="" pointer-events="none" display="none"/></g></g><g class="mark-group role-axis" aria-hidden="true"><g transform="translate(0.5,0.5)"><path class="background" aria-hidden="true" d="M0,0h0v0h0Z" pointer-events="none"/><g><g class="mark-rule role-axis-grid" pointer-events="none"><line transform="translate(0,300)" x2="300" y2="0" stroke="#ddd" stroke-width="1" opacity="1"/><line transform="translate(0,270)" x2="300" y2="0" stroke="#ddd" stroke-width="1" opacity="1"/><line transform="translate(0,240)" x2="300" y2="0" stroke="#ddd" stroke-width="1" opacity="1"/><line transform="translate(0,210)" x2="300" y2="0" stroke="#ddd" stroke-width="1" opacity="1"/><line transform="translate(0,180)" x2="300" y2="0" stroke="#ddd" stroke-width="1" opacity="1"/><line transform="translate(0,150)" x2="300" y2="0" stroke="#ddd" stroke-width="1" opacity="1"/><line transform="translate(0,120)" x2="300" y2="0" stroke="#ddd" stroke-width="1" opacity="1"/><line transform="translate(0,90)" x2="300" y2="0" stroke="#ddd" stroke-width="1" opacity="1"/><line transform="translate(0,60)" x2="300" y2="0" stroke="#ddd" stroke-width="1" opacity="1"/><line transform="translate(0,30)" x2="300" y2="0" stroke="#ddd" stroke-width="1" opacity="1"/><line transform="translate(0,0)" x2="300" y2="0" stroke="#ddd" stroke-width="1" opacity="1"/></g></g><path class="foreground" aria-hidden="true" d="" pointer-events="none" display="none"/></g></g><g class="mark-group role-axis" role="graphics-symbol" aria-roledescription="axis" aria-label="X-axis titled 'epoch' for a linear scale with values from 0 to 200"><g transform="translate(0.5,300.5)"><path class="background" aria-hidden="true" d="M0,0h0v0h0Z" pointer-events="none"/><g><g class="mark-rule role-axis-tick" pointer-events="none"><line transform="translate(0,0)" x2="0" y2="5" stroke="#888" stroke-width="1" opacity="1"/><line transform="translate(30,0)" x2="0" y2="5" stroke="#888" stroke-width="1" opacity="1"/><line transform="translate(60,0)" x2="0" y2="5" stroke="#888" stroke-width="1" opacity="1"/><line transform="translate(90,0)" x2="0" y2="5" stroke="#888" stroke-width="1" opacity="1"/><line transform="translate(120,0)" x2="0" y2="5" stroke="#888" stroke-width="1" opacity="1"/><line transform="translate(150,0)" x2="0" y2="5" stroke="#888" stroke-width="1" opacity="1"/><line transform="translate(180,0)" x2="0" y2="5" stroke="#888" stroke-width="1" opacity="1"/><line transform="translate(210,0)" x2="0" y2="5" stroke="#888" stroke-width="1" opacity="1"/><line transform="translate(240,0)" x2="0" y2="5" stroke="#888" stroke-width="1" opacity="1"/><line transform="translate(270,0)" x2="0" y2="5" stroke="#888" stroke-width="1" opacity="1"/><line transform="translate(300,0)" x2="0" y2="5" stroke="#888" stroke-width="1" opacity="1"/></g><g class="mark-text role-axis-label" pointer-events="none"><text text-anchor="start" transform="translate(0,20)" font-family="sans-serif" font-size="16px" fill="#000" opacity="1">0</text><text text-anchor="middle" transform="translate(30,20)" font-family="sans-serif" font-size="16px" fill="#000" opacity="0">20</text><text text-anchor="middle" transform="translate(60,20)" font-family="sans-serif" font-size="16px" fill="#000" opacity="1">40</text><text text-anchor="middle" transform="translate(90,20)" font-family="sans-serif" font-size="16px" fill="#000" opacity="0">60</text><text text-anchor="middle" transform="translate(120,20)" font-family="sans-serif" font-size="16px" fill="#000" opacity="1">80</text><text text-anchor="middle" transform="translate(150,20)" font-family="sans-serif" font-size="16px" fill="#000" opacity="0">100</text><text text-anchor="middle" transform="translate(180,20)" font-family="sans-serif" font-size="16px" fill="#000" opacity="1">120</text><text text-anchor="middle" transform="translate(210,20)" font-family="sans-serif" font-size="16px" fill="#000" opacity="0">140</text><text text-anchor="middle" transform="translate(240,20)" font-family="sans-serif" font-size="16px" fill="#000" opacity="1">160</text><text text-anchor="middle" transform="translate(270,20)" font-family="sans-serif" font-size="16px" fill="#000" opacity="0">180</text><text text-anchor="end" transform="translate(300,20)" font-family="sans-serif" font-size="16px" fill="#000" opacity="1">200</text></g><g class="mark-rule role-axis-domain" pointer-events="none"><line transform="translate(0,0)" x2="300" y2="0" stroke="#888" stroke-width="1" opacity="1"/></g><g class="mark-text role-axis-title" pointer-events="none"><text text-anchor="middle" transform="translate(150,40)" font-family="sans-serif" font-size="16px" font-weight="bold" fill="#000" opacity="1">epoch</text></g></g><path class="foreground" aria-hidden="true" d="" pointer-events="none" display="none"/></g></g><g class="mark-group role-axis" role="graphics-symbol" aria-roledescription="axis" aria-label="Y-axis titled 'word error rate' for a linear scale with values from 0.0 to 1.0"><g transform="translate(0.5,0.5)"><path class="background" aria-hidden="true" d="M0,0h0v0h0Z" pointer-events="none"/><g><g class="mark-rule role-axis-tick" pointer-events="none"><line transform="translate(0,300)" x2="-5" y2="0" stroke="#888" stroke-width="1" opacity="1"/><line transform="translate(0,270)" x2="-5" y2="0" stroke="#888" stroke-width="1" opacity="1"/><line transform="translate(0,240)" x2="-5" y2="0" stroke="#888" stroke-width="1" opacity="1"/><line transform="translate(0,210)" x2="-5" y2="0" stroke="#888" stroke-width="1" opacity="1"/><line transform="translate(0,180)" x2="-5" y2="0" stroke="#888" stroke-width="1" opacity="1"/><line transform="translate(0,150)" x2="-5" y2="0" stroke="#888" stroke-width="1" opacity="1"/><line transform="translate(0,120)" x2="-5" y2="0" stroke="#888" stroke-width="1" opacity="1"/><line transform="translate(0,90)" x2="-5" y2="0" stroke="#888" stroke-width="1" opacity="1"/><line transform="translate(0,60)" x2="-5" y2="0" stroke="#888" stroke-width="1" opacity="1"/><line transform="translate(0,30)" x2="-5" y2="0" stroke="#888" stroke-width="1" opacity="1"/><line transform="translate(0,0)" x2="-5" y2="0" stroke="#888" stroke-width="1" opacity="1"/></g><g class="mark-text role-axis-label" pointer-events="none"><text text-anchor="end" transform="translate(-7,305)" font-family="sans-serif" font-size="16px" fill="#000" opacity="1">0.0</text><text text-anchor="end" transform="translate(-7,275)" font-family="sans-serif" font-size="16px" fill="#000" opacity="1">0.1</text><text text-anchor="end" transform="translate(-7,245)" font-family="sans-serif" font-size="16px" fill="#000" opacity="1">0.2</text><text text-anchor="end" transform="translate(-7,215)" font-family="sans-serif" font-size="16px" fill="#000" opacity="1">0.3</text><text text-anchor="end" transform="translate(-7,185)" font-family="sans-serif" font-size="16px" fill="#000" opacity="1">0.4</text><text text-anchor="end" transform="translate(-7,155)" font-family="sans-serif" font-size="16px" fill="#000" opacity="1">0.5</text><text text-anchor="end" transform="translate(-7,125)" font-family="sans-serif" font-size="16px" fill="#000" opacity="1">0.6</text><text text-anchor="end" transform="translate(-7,95.00000000000001)" font-family="sans-serif" font-size="16px" fill="#000" opacity="1">0.7</text><text text-anchor="end" transform="translate(-7,64.99999999999999)" font-family="sans-serif" font-size="16px" fill="#000" opacity="1">0.8</text><text text-anchor="end" transform="translate(-7,34.99999999999999)" font-family="sans-serif" font-size="16px" fill="#000" opacity="1">0.9</text><text text-anchor="end" transform="translate(-7,5)" font-family="sans-serif" font-size="16px" fill="#000" opacity="1">1.0</text></g><g class="mark-rule role-axis-domain" pointer-events="none"><line transform="translate(0,300)" x2="0" y2="-300" stroke="#888" stroke-width="1" opacity="1"/></g><g class="mark-text role-axis-title" pointer-events="none"><text text-anchor="middle" transform="translate(-33.2421875,150) rotate(-90) translate(0,-3)" font-family="sans-serif" font-size="16px" font-weight="bold" fill="#000" opacity="1">word error rate</text></g></g><path class="foreground" aria-hidden="true" d="" pointer-events="none" display="none"/></g></g><g class="mark-group role-scope concat_0_pathgroup" role="graphics-object" aria-roledescription="group mark container"><g transform="translate(0,0)"><path class="background" aria-hidden="true" d="M0,0h300v300h-300Z"/><g><g class="mark-line role-mark concat_0_marks" role="graphics-object" aria-roledescription="line mark container"><path aria-label="epoch: 0; word error rate: 0.95001322031; model: EMG &amp; Audio; wer: 0.95001322031" role="graphics-symbol" aria-roledescription="line mark" d="M0,14.996L1.5,19.598L3,31.182L4.5,29.199L6,43.163L7.5,49.431L9,58.556L10.5,67.998L12,59.429L13.5,74.028L15,81.962L16.5,87.913L18,86.247L19.5,96.482L21,92.912L22.5,99.815L24,106.797L25.5,111.955L27,113.621L28.5,116.795L30,124.253L31.5,122.349L33,126.871L34.5,134.409L36,132.346L37.5,137.027L39,138.773L40.5,133.853L42,142.74L43.5,144.01L45,155.832L46.5,158.371L48,153.69L49.5,160.037L51,155.99L52.5,165.908L54,164.004L55.5,169.796L57,164.639L58.5,169.003L60,170.907L61.5,171.78L63,175.985L64.5,176.223L66,180.428L67.5,176.144L69,181.063L70.5,180.825L72,180.19L73.5,179.794L75,180.666L76.5,186.459L78,180.905L79.5,188.125L81,185.586L82.5,185.506L84,188.76L85.5,188.442L87,190.029L88.5,187.331L90,189.236L91.5,187.649L93,194.552L94.5,187.49L96,189.077L97.5,191.775L99,189.632L100.5,193.996L102,191.616L103.5,192.33L105,193.362L106.5,193.282L108,194.472L109.5,197.964L111,194.71L112.5,191.378L114,190.346L115.5,195.504L117,196.535L118.5,197.329L120,192.409L121.5,193.838L123,199.392L124.5,194.552L126,193.124L127.5,194.79L129,196.456L130.5,195.583L132,194.71L133.5,197.646L135,192.965L136.5,197.011L138,194.948L139.5,197.805L141,197.408L142.5,196.059L144,193.044L145.5,197.805L147,198.916L148.5,196.297L150,198.122L151.5,198.995L153,200.026L154.5,200.106L156,200.185L157.5,196.694L159,201.375L160.5,195.583L162,197.329L163.5,199.233L165,200.106L166.5,203.994L168,197.964L169.5,199.947L171,196.377L172.5,200.026L174,198.44L175.5,200.026L177,199.709L178.5,199.788L180,198.916L181.5,199.947L183,199.868L184.5,199.154L186,196.139L187.5,208.12L189,214.943L190.5,213.753L192,212.325L193.5,212.007L195,211.135L196.5,211.69L198,210.262L199.5,208.754L201,210.5L202.5,208.278L204,209.706L205.5,208.754L207,210.817L208.5,210.182L210,208.358L211.5,209.31L213,208.913L214.5,211.135L216,209.706L217.5,208.358L219,213.356L220.5,208.675L222,208.754L223.5,209.548L225,214.388L226.5,214.388L228,215.34L229.5,217.165L231,215.816L232.5,214.07L234,214.705L235.5,213.118L237,212.88L238.5,214.943L240,214.229L241.5,216.133L243,212.563L244.5,214.784L246,213.594L247.5,215.102L249,213.436L250.5,214.943L252,213.277L253.5,215.419L255,214.15L256.5,214.229L258,212.245L259.5,214.15L261,214.07L262.5,217.641L264,217.8L265.5,218.355L267,217.561L268.5,217.561L270,216.53L271.5,216.213L273,218.514L274.5,216.609L276,216.53L277.5,217.8L279,217.085L280.5,217.006L282,216.213L283.5,217.085L285,217.561L286.5,218.117L288,216.927L289.5,217.085L291,215.657L292.5,215.578L294,215.975L295.5,215.975L297,215.578L298.5,217.641" stroke="#f58518" stroke-width="2"/></g></g><path class="foreground" aria-hidden="true" d="" display="none"/></g><g transform="translate(0,0)"><path class="background" aria-hidden="true" d="M0,0h300v300h-300Z"/><g><g class="mark-line role-mark concat_0_marks" role="graphics-object" aria-roledescription="line mark container"><path aria-label="epoch: 0; word error rate: 1; model: EMG 256k; wer: 1" role="graphics-symbol" aria-roledescription="line mark" d="M0,0L1.5,15.789L3,18.725L4.5,24.914L6,31.5L7.5,37.292L9,41.259L10.5,51.336L12,56.969L13.5,61.809L15,65.538L16.5,71.41L18,76.091L19.5,72.6L21,83.787L22.5,93.864L24,93.229L25.5,97.197L27,100.053L28.5,99.815L30,106.004L31.5,116.08L33,114.89L34.5,119.095L36,121.873L37.5,121.476L39,125.919L40.5,130.918L42,135.599L43.5,139.963L45,140.677L46.5,141.232L48,135.52L49.5,144.089L51,147.739L52.5,148.611L54,151.389L55.5,155.197L57,155.911L58.5,158.609L60,162.497L61.5,157.895L63,159.323L64.5,164.242L66,164.956L67.5,162.576L69,167.495L70.5,168.527L72,166.702L73.5,174.478L75,172.415L76.5,172.732L78,175.906L79.5,172.097L81,177.096L82.5,177.334L84,178.524L85.5,177.81L87,176.223L88.5,177.334L90,179.952L91.5,177.889L93,177.255L94.5,179.08L96,181.46L97.5,182.809L99,179.318L100.5,183.999L102,179.318L103.5,183.444L105,185.506L106.5,185.506L108,185.506L109.5,184.078L111,186.459L112.5,187.966L114,188.284L115.5,186.141L117,186.538L118.5,188.204L120,187.807L121.5,187.173L123,191.537L124.5,189.156L126,188.204L127.5,187.331L129,187.569L130.5,187.887L132,191.457L133.5,188.839L135,190.108L136.5,189.553L138,188.442L139.5,187.649L141,191.854L142.5,190.823L144,191.775L145.5,188.918L147,188.522L148.5,189.156L150,188.284L151.5,188.284L153,192.568L154.5,187.807L156,193.203L157.5,192.092L159,190.585L160.5,190.743L162,191.775L163.5,190.426L165,186.379L166.5,187.252L168,191.299L169.5,192.885L171,190.188L172.5,192.647L174,189.394L175.5,190.346L177,187.093L178.5,191.299L180,190.823L181.5,191.854L183,193.282L184.5,191.14L186,187.569L187.5,201.137L189,200.82L190.5,202.883L192,199.868L193.5,198.836L195,199.154L196.5,198.519L198,199.868L199.5,196.773L201,199.55L202.5,199.392L204,199.074L205.5,196.139L207,198.44L208.5,199.074L210,196.694L211.5,196.615L213,196.139L214.5,200.185L216,197.725L217.5,199.471L219,197.725L220.5,198.281L222,197.408L223.5,197.091L225,203.2L226.5,203.359L228,204.866L229.5,202.724L231,201.851L232.5,200.026L234,200.741L235.5,201.137L237,202.486L238.5,200.661L240,203.28L241.5,200.582L243,199.947L244.5,200.82L246,201.455L247.5,200.661L249,200.899L250.5,200.741L252,201.375L253.5,200.503L255,201.058L256.5,202.01L258,202.486L259.5,200.503L261,201.137L262.5,204.232L264,202.089L265.5,202.407L267,202.883L268.5,203.438L270,202.645L271.5,205.263L273,203.597L274.5,200.82L276,203.28L277.5,202.565L279,204.549L280.5,203.518L282,202.01L283.5,201.534L285,201.772L286.5,201.772L288,201.534L289.5,203.676L291,202.565L292.5,203.676L294,202.486L295.5,203.042L297,200.979L298.5,201.931" stroke="#4c78a8" stroke-width="2"/></g></g><path class="foreground" aria-hidden="true" d="" display="none"/></g><g transform="translate(0,0)"><path class="background" aria-hidden="true" d="M0,0h300v300h-300Z"/><g><g class="mark-line role-mark concat_0_marks" role="graphics-object" aria-roledescription="line mark container"><path aria-label="epoch: 0; word error rate: 0.98704046011; model: crossCon 256k; wer: 0.98704046011" role="graphics-symbol" aria-roledescription="line mark" d="M0,3.888L1.5,20.55L3,33.801L4.5,47.289L6,52.446L7.5,60.54L9,66.57L10.5,76.408L12,80.296L13.5,93.943L15,90.928L16.5,99.894L18,101.719L19.5,102.989L21,112.193L22.5,124.888L24,122.666L25.5,124.173L27,131.791L28.5,136.551L30,134.726L31.5,143.295L33,147.025L34.5,150.595L36,151.309L37.5,155.673L39,155.514L40.5,160.592L42,160.592L43.5,166.226L45,170.114L46.5,168.448L48,159.72L49.5,175.033L51,174.795L52.5,169.162L54,179L55.5,181.063L57,177.413L58.5,182.491L60,184.634L61.5,185.11L63,186.697L64.5,189.87L66,187.569L67.5,182.809L69,187.569L70.5,189.632L72,191.695L73.5,191.775L75,192.013L76.5,192.489L78,196.218L79.5,194.393L81,198.122L82.5,197.646L84,192.647L85.5,198.757L87,198.36L88.5,196.853L90,199.63L91.5,200.741L93,198.598L94.5,200.185L96,203.518L97.5,203.994L99,201.058L100.5,204.152L102,198.043L103.5,202.803L105,204.946L106.5,205.501L108,206.215L109.5,208.278L111,208.516L112.5,208.516L114,203.597L115.5,204.152L117,211.214L118.5,208.516L120,207.643L121.5,209.389L123,210.421L124.5,210.421L126,211.293L127.5,209.786L129,208.913L130.5,209.23L132,208.199L133.5,206.612L135,208.596L136.5,211.293L138,210.897L139.5,211.531L141,211.452L142.5,212.166L144,210.341L145.5,211.69L147,213.594L148.5,210.421L150,212.166L151.5,211.611L153,209.468L154.5,213.198L156,210.897L157.5,211.373L159,210.976L160.5,209.706L162,212.483L163.5,212.245L165,210.738L166.5,207.485L168,208.675L169.5,214.943L171,214.467L172.5,212.166L174,212.007L175.5,210.659L177,209.786L178.5,211.373L180,213.198L181.5,210.976L183,210.182L184.5,213.991L186,212.166L187.5,222.957L189,222.56L190.5,224.306L192,220.577L193.5,222.481L195,221.211L196.5,222.401L198,224.544L199.5,223.592L201,222.719L202.5,221.529L204,221.132L205.5,223.116L207,219.386L208.5,222.243L210,220.339L211.5,218.434L213,221.687L214.5,221.053L216,220.656L217.5,220.497L219,221.846L220.5,224.068L222,219.942L223.5,219.704L225,224.94L226.5,224.068L228,224.782L229.5,225.099L231,226.607L232.5,225.496L234,225.655L235.5,225.655L237,225.972L238.5,223.354L240,225.734L241.5,223.671L243,226.527L244.5,222.56L246,223.909L247.5,224.306L249,222.957L250.5,225.02L252,223.512L253.5,224.068L255,222.56L256.5,224.702L258,223.036L259.5,223.354L261,225.417L262.5,227.638L264,225.813L265.5,225.734L267,226.369L268.5,226.448L270,227.241L271.5,226.607L273,227.083L274.5,226.924L276,225.813L277.5,225.575L279,226.527L280.5,226.924L282,226.845L283.5,227.797L285,226.131L286.5,226.765L288,226.131L289.5,226.131L291,225.972L292.5,226.289L294,228.114L295.5,228.194L297,225.972L298.5,225.337" stroke="#e45756" stroke-width="2"/></g></g><path class="foreground" aria-hidden="true" d="" display="none"/></g></g></g><path class="foreground" aria-hidden="true" d="" display="none"/></g></g><g class="mark-group role-scope concat_1_group" role="graphics-object" aria-roledescription="group mark container"><g transform="translate(373,0)"><path class="background" aria-hidden="true" d="M0.5,0.5h300v300h-300Z" stroke="#ddd"/><g><g class="mark-group role-axis" aria-hidden="true"><g transform="translate(0.5,300.5)"><path class="background" aria-hidden="true" d="M0,0h0v0h0Z" pointer-events="none"/><g><g class="mark-rule role-axis-grid" pointer-events="none"><line transform="translate(0,-300)" x2="0" y2="300" stroke="#ddd" stroke-width="1" opacity="1"/><line transform="translate(30,-300)" x2="0" y2="300" stroke="#ddd" stroke-width="1" opacity="1"/><line transform="translate(60,-300)" x2="0" y2="300" stroke="#ddd" stroke-width="1" opacity="1"/><line transform="translate(90,-300)" x2="0" y2="300" stroke="#ddd" stroke-width="1" opacity="1"/><line transform="translate(120,-300)" x2="0" y2="300" stroke="#ddd" stroke-width="1" opacity="1"/><line transform="translate(150,-300)" x2="0" y2="300" stroke="#ddd" stroke-width="1" opacity="1"/><line transform="translate(180,-300)" x2="0" y2="300" stroke="#ddd" stroke-width="1" opacity="1"/><line transform="translate(210,-300)" x2="0" y2="300" stroke="#ddd" stroke-width="1" opacity="1"/><line transform="translate(240,-300)" x2="0" y2="300" stroke="#ddd" stroke-width="1" opacity="1"/><line transform="translate(270,-300)" x2="0" y2="300" stroke="#ddd" stroke-width="1" opacity="1"/><line transform="translate(300,-300)" x2="0" y2="300" stroke="#ddd" stroke-width="1" opacity="1"/></g></g><path class="foreground" aria-hidden="true" d="" pointer-events="none" display="none"/></g></g><g class="mark-group role-axis" aria-hidden="true"><g transform="translate(0.5,0.5)"><path class="background" aria-hidden="true" d="M0,0h0v0h0Z" pointer-events="none"/><g><g class="mark-rule role-axis-grid" pointer-events="none"><line transform="translate(0,300)" x2="300" y2="0" stroke="#ddd" stroke-width="1" opacity="1"/><line transform="translate(0,250)" x2="300" y2="0" stroke="#ddd" stroke-width="1" opacity="1"/><line transform="translate(0,200)" x2="300" y2="0" stroke="#ddd" stroke-width="1" opacity="1"/><line transform="translate(0,150)" x2="300" y2="0" stroke="#ddd" stroke-width="1" opacity="1"/><line transform="translate(0,100)" x2="300" y2="0" stroke="#ddd" stroke-width="1" opacity="1"/><line transform="translate(0,50)" x2="300" y2="0" stroke="#ddd" stroke-width="1" opacity="1"/><line transform="translate(0,0)" x2="300" y2="0" stroke="#ddd" stroke-width="1" opacity="1"/></g></g><path class="foreground" aria-hidden="true" d="" pointer-events="none" display="none"/></g></g><g class="mark-group role-axis" role="graphics-symbol" aria-roledescription="axis" aria-label="X-axis titled 'epoch' for a linear scale with values from 0 to 200"><g transform="translate(0.5,300.5)"><path class="background" aria-hidden="true" d="M0,0h0v0h0Z" pointer-events="none"/><g><g class="mark-rule role-axis-tick" pointer-events="none"><line transform="translate(0,0)" x2="0" y2="5" stroke="#888" stroke-width="1" opacity="1"/><line transform="translate(30,0)" x2="0" y2="5" stroke="#888" stroke-width="1" opacity="1"/><line transform="translate(60,0)" x2="0" y2="5" stroke="#888" stroke-width="1" opacity="1"/><line transform="translate(90,0)" x2="0" y2="5" stroke="#888" stroke-width="1" opacity="1"/><line transform="translate(120,0)" x2="0" y2="5" stroke="#888" stroke-width="1" opacity="1"/><line transform="translate(150,0)" x2="0" y2="5" stroke="#888" stroke-width="1" opacity="1"/><line transform="translate(180,0)" x2="0" y2="5" stroke="#888" stroke-width="1" opacity="1"/><line transform="translate(210,0)" x2="0" y2="5" stroke="#888" stroke-width="1" opacity="1"/><line transform="translate(240,0)" x2="0" y2="5" stroke="#888" stroke-width="1" opacity="1"/><line transform="translate(270,0)" x2="0" y2="5" stroke="#888" stroke-width="1" opacity="1"/><line transform="translate(300,0)" x2="0" y2="5" stroke="#888" stroke-width="1" opacity="1"/></g><g class="mark-text role-axis-label" pointer-events="none"><text text-anchor="start" transform="translate(0,20)" font-family="sans-serif" font-size="16px" fill="#000" opacity="1">0</text><text text-anchor="middle" transform="translate(30,20)" font-family="sans-serif" font-size="16px" fill="#000" opacity="0">20</text><text text-anchor="middle" transform="translate(60,20)" font-family="sans-serif" font-size="16px" fill="#000" opacity="1">40</text><text text-anchor="middle" transform="translate(90,20)" font-family="sans-serif" font-size="16px" fill="#000" opacity="0">60</text><text text-anchor="middle" transform="translate(120,20)" font-family="sans-serif" font-size="16px" fill="#000" opacity="1">80</text><text text-anchor="middle" transform="translate(150,20)" font-family="sans-serif" font-size="16px" fill="#000" opacity="0">100</text><text text-anchor="middle" transform="translate(180,20)" font-family="sans-serif" font-size="16px" fill="#000" opacity="1">120</text><text text-anchor="middle" transform="translate(210,20)" font-family="sans-serif" font-size="16px" fill="#000" opacity="0">140</text><text text-anchor="middle" transform="translate(240,20)" font-family="sans-serif" font-size="16px" fill="#000" opacity="1">160</text><text text-anchor="middle" transform="translate(270,20)" font-family="sans-serif" font-size="16px" fill="#000" opacity="0">180</text><text text-anchor="end" transform="translate(300,20)" font-family="sans-serif" font-size="16px" fill="#000" opacity="1">200</text></g><g class="mark-rule role-axis-domain" pointer-events="none"><line transform="translate(0,0)" x2="300" y2="0" stroke="#888" stroke-width="1" opacity="1"/></g><g class="mark-text role-axis-title" pointer-events="none"><text text-anchor="middle" transform="translate(150,40)" font-family="sans-serif" font-size="16px" font-weight="bold" fill="#000" opacity="1">epoch</text></g></g><path class="foreground" aria-hidden="true" d="" pointer-events="none" display="none"/></g></g><g class="mark-group role-axis" role="graphics-symbol" aria-roledescription="axis" aria-label="Y-axis titled 'CTC loss' for a linear scale with values from 0.0 to 3.0"><g transform="translate(0.5,0.5)"><path class="background" aria-hidden="true" d="M0,0h0v0h0Z" pointer-events="none"/><g><g class="mark-rule role-axis-tick" pointer-events="none"><line transform="translate(0,300)" x2="-5" y2="0" stroke="#888" stroke-width="1" opacity="1"/><line transform="translate(0,250)" x2="-5" y2="0" stroke="#888" stroke-width="1" opacity="1"/><line transform="translate(0,200)" x2="-5" y2="0" stroke="#888" stroke-width="1" opacity="1"/><line transform="translate(0,150)" x2="-5" y2="0" stroke="#888" stroke-width="1" opacity="1"/><line transform="translate(0,100)" x2="-5" y2="0" stroke="#888" stroke-width="1" opacity="1"/><line transform="translate(0,50)" x2="-5" y2="0" stroke="#888" stroke-width="1" opacity="1"/><line transform="translate(0,0)" x2="-5" y2="0" stroke="#888" stroke-width="1" opacity="1"/></g><g class="mark-text role-axis-label" pointer-events="none"><text text-anchor="end" transform="translate(-7,305)" font-family="sans-serif" font-size="16px" fill="#000" opacity="1">0.0</text><text text-anchor="end" transform="translate(-7,255)" font-family="sans-serif" font-size="16px" fill="#000" opacity="1">0.5</text><text text-anchor="end" transform="translate(-7,205.00000000000003)" font-family="sans-serif" font-size="16px" fill="#000" opacity="1">1.0</text><text text-anchor="end" transform="translate(-7,155)" font-family="sans-serif" font-size="16px" fill="#000" opacity="1">1.5</text><text text-anchor="end" transform="translate(-7,105.00000000000001)" font-family="sans-serif" font-size="16px" fill="#000" opacity="1">2.0</text><text text-anchor="end" transform="translate(-7,54.999999999999986)" font-family="sans-serif" font-size="16px" fill="#000" opacity="1">2.5</text><text text-anchor="end" transform="translate(-7,5)" font-family="sans-serif" font-size="16px" fill="#000" opacity="1">3.0</text></g><g class="mark-rule role-axis-domain" pointer-events="none"><line transform="translate(0,300)" x2="0" y2="-300" stroke="#888" stroke-width="1" opacity="1"/></g><g class="mark-text role-axis-title" pointer-events="none"><text text-anchor="middle" transform="translate(-33.2421875,150) rotate(-90) translate(0,-3)" font-family="sans-serif" font-size="16px" font-weight="bold" fill="#000" opacity="1">CTC loss</text></g></g><path class="foreground" aria-hidden="true" d="" pointer-events="none" display="none"/></g></g><g class="mark-group role-scope concat_1_pathgroup" role="graphics-object" aria-roledescription="group mark container"><g transform="translate(0,0)"><path class="background" aria-hidden="true" d="M0,0h300v300h-300Z"/><g><g class="mark-line role-mark concat_1_marks" role="graphics-object" aria-roledescription="line mark container"><path aria-label="epoch: 0; CTC loss: 2.64336919785; model: EMG &amp; Audio; ctc: 2.64336919785" role="graphics-symbol" aria-roledescription="line mark" d="M0,35.663L1.5,69.714L3,90.869L4.5,103.241L6,120.385L7.5,130.725L9,136.842L10.5,144.193L12,145.678L13.5,151.09L15,159.446L16.5,157.863L18,168.363L19.5,163.287L21,170.467L22.5,176.163L24,175.899L25.5,181.363L27,183.119L28.5,181.657L30,189.038L31.5,186.097L33,191.348L34.5,192.048L36,194.034L37.5,193.518L39,195.911L40.5,195.875L42,198.505L43.5,199.191L45,202.117L46.5,201.241L48,204.844L49.5,204.342L51,206.634L52.5,205.479L54,202.003L55.5,205.328L57,202.007L58.5,206.083L60,206.401L61.5,203.667L63,206.401L64.5,211.876L66,205.673L67.5,209.028L69,210.692L70.5,207.786L72,210.712L73.5,207.226L75,205.768L76.5,209.173L78,212.006L79.5,207.953L81,206.63L82.5,204.26L84,205.908L85.5,210.88L87,210.141L88.5,206.685L90,208.311L91.5,203.857L93,208.245L94.5,204.528L96,207.557L97.5,205.524L99,205.802L100.5,204.308L102,206.169L103.5,206.359L105,205.922L106.5,205.085L108,204.762L109.5,208.824L111,204.991L112.5,202.922L114,206.44L115.5,202.203L117,209.785L118.5,201.687L120,208.868L121.5,204.158L123,205.685L124.5,203.919L126,201.304L127.5,202.982L129,205.613L130.5,204.511L132,199.616L133.5,204.267L135,198.606L136.5,201.186L138,196.821L139.5,206.502L141,203.477L142.5,199.905L144,199.667L145.5,204.026L147,200.009L148.5,199.023L150,202.663L151.5,202.215L153,200.106L154.5,203.175L156,201.892L157.5,199.327L159,203.336L160.5,200.487L162,205.539L163.5,203.112L165,204.61L166.5,200.992L168,200.115L169.5,198.17L171,200.066L172.5,207.343L174,199.276L175.5,200.684L177,199.689L178.5,197.861L180,200.762L181.5,201.906L183,200.925L184.5,197.265L186,196.718L187.5,204.633L189,206.306L190.5,201.956L192,197.068L193.5,198.553L195,197.908L196.5,195.16L198,197.257L199.5,198.792L201,193.805L202.5,196.739L204,189.081L205.5,193.507L207,192.693L208.5,189.965L210,191.369L211.5,190.219L213,193.136L214.5,189.388L216,189.316L217.5,186.512L219,197.645L220.5,192.177L222,191.631L223.5,190.328L225,193.404L226.5,188.239L228,189.036L229.5,190.517L231,185.745L232.5,186.566L234,192.996L235.5,191.518L237,188.162L238.5,185.798L240,188.37L241.5,186.869L243,184.776L244.5,183.896L246,186.326L247.5,182.504L249,182.246L250.5,188.062L252,185.064L253.5,187.051L255,187.168L256.5,188.388L258,183.978L259.5,185.874L261,183.521L262.5,189.124L264,186.626L265.5,185.766L267,183.007L268.5,182.641L270,185.689L271.5,181.552L273,186.695L274.5,188.44L276,183.172L277.5,184.736L279,184.114L280.5,184.093L282,181.832L283.5,181.791L285,187.356L286.5,186.446L288,184.548L289.5,186.2L291,180.644L292.5,181.143L294,185.419L295.5,184.948L297,181.478L298.5,183.153" stroke="#f58518" stroke-width="2"/></g></g><path class="foreground" aria-hidden="true" d="" display="none"/></g><g transform="translate(0,0)"><path class="background" aria-hidden="true" d="M0,0h300v300h-300Z"/><g><g class="mark-line role-mark concat_1_marks" role="graphics-object" aria-roledescription="line mark container"><path aria-label="epoch: 0; CTC loss: 2.87301111221; model: EMG 256k; ctc: 2.87301111221" role="graphics-symbol" aria-roledescription="line mark" d="M0,12.699L1.5,49.091L3,71.953L4.5,88.399L6,99.444L7.5,108.829L9,121.55L10.5,132.031L12,137.5L13.5,142.051L15,146.299L16.5,157.699L18,155.664L19.5,158.979L21,161.565L22.5,168.143L24,172.21L25.5,173.244L27,176.938L28.5,177.46L30,180.464L31.5,182.037L33,183.348L34.5,187.318L36,187.931L37.5,187.627L39,187.704L40.5,190.454L42,190.325L43.5,192.333L45,188.392L46.5,189.338L48,192.673L49.5,194.711L51,194.994L52.5,197.508L54,194.706L55.5,196.007L57,196.007L58.5,198.3L60,196.484L61.5,199.692L63,202.024L64.5,197.055L66,199.19L67.5,196.412L69,196.036L70.5,195.044L72,193.341L73.5,194.182L75,194.292L76.5,196.175L78,201.008L79.5,197.521L81,201.04L82.5,199.848L84,196.785L85.5,193.006L87,197.168L88.5,194.538L90,195.387L91.5,192.532L93,197.133L94.5,192.923L96,199.581L97.5,196.911L99,188.438L100.5,192.667L102,189.407L103.5,194.291L105,190.759L106.5,190.514L108,191.509L109.5,193.416L111,187.169L112.5,191.799L114,193.916L115.5,188.252L117,193.829L118.5,189.345L120,187.337L121.5,189.595L123,186.559L124.5,189.247L126,190.001L127.5,191.084L129,187.101L130.5,193.308L132,191.82L133.5,181.783L135,190.539L136.5,189.112L138,182.226L139.5,182.78L141,185.166L142.5,195.236L144,188.856L145.5,187.045L147,183.063L148.5,186.922L150,183.272L151.5,189.803L153,185.774L154.5,181.001L156,184.189L157.5,183.825L159,188.047L160.5,182.977L162,181.589L163.5,185.522L165,176.107L166.5,182.654L168,180.742L169.5,180.279L171,189.684L172.5,183.913L174,179.261L175.5,181.709L177,182.589L178.5,177.521L180,179.66L181.5,180.859L183,181.121L184.5,179.023L186,178.421L187.5,182.658L189,183.439L190.5,182.137L192,172.653L193.5,172.143L195,172.969L196.5,166.381L198,175.553L199.5,170.109L201,167.093L202.5,164.735L204,170.065L205.5,169.243L207,167.575L208.5,165.694L210,168.702L211.5,169.124L213,168.88L214.5,159.914L216,164.369L217.5,166.066L219,164.743L220.5,169.192L222,163.576L223.5,159.242L225,168.027L226.5,173.035L228,170.16L229.5,164.661L231,167.758L232.5,158.564L234,159.878L235.5,162.496L237,162.358L238.5,161.764L240,163.17L241.5,157.132L243,160.973L244.5,154.46L246,151.96L247.5,158.36L249,157.69L250.5,157.977L252,154.341L253.5,153.943L255,160.165L256.5,158.332L258,161.523L259.5,157.176L261,154.956L262.5,157.628L264,155.644L265.5,154.332L267,153.455L268.5,149.3L270,152.231L271.5,154.573L273,152.575L274.5,147.049L276,154.096L277.5,152.777L279,148.645L280.5,152.411L282,149.376L283.5,146.153L285,149.48L286.5,147.108L288,143.196L289.5,142.997L291,145.482L292.5,150.164L294,145.08L295.5,147.823L297,149.08L298.5,146.132" stroke="#4c78a8" stroke-width="2"/></g></g><path class="foreground" aria-hidden="true" d="" display="none"/></g><g transform="translate(0,0)"><path class="background" aria-hidden="true" d="M0,0h300v300h-300Z"/><g><g class="mark-line role-mark concat_1_marks" role="graphics-object" aria-roledescription="line mark container"><path aria-label="epoch: 0; CTC loss: 2.64919424057; model: crossCon 256k; ctc: 2.64919424057" role="graphics-symbol" aria-roledescription="line mark" d="M0,35.081L1.5,84.697L3,107.049L4.5,126.531L6,138.015L7.5,147.329L9,146.382L10.5,158.111L12,164.319L13.5,166.841L15,173.843L16.5,176.224L18,178.436L19.5,179.957L21,183.037L22.5,189.101L24,190.175L25.5,194.256L27,197.567L28.5,196.345L30,196.985L31.5,198.644L33,199.131L34.5,201.75L36,203.37L37.5,207.507L39,205.599L40.5,202.767L42,207.042L43.5,205.025L45,207.75L46.5,206.178L48,208.49L49.5,210.678L51,213.256L52.5,211.098L54,209.991L55.5,215.08L57,212.346L58.5,214.292L60,212.041L61.5,211.635L63,217.748L64.5,214.172L66,213.201L67.5,210.453L69,211.424L70.5,215.225L72,217.56L73.5,212.589L75,216.664L76.5,212.142L78,214.137L79.5,210.508L81,214.497L82.5,217.367L84,216.789L85.5,208.582L87,211.566L88.5,213.74L90,217.696L91.5,215.064L93,214.745L94.5,212.264L96,216.065L97.5,217.852L99,213.523L100.5,219.523L102,212.68L103.5,215.054L105,213.172L106.5,216.192L108,214.32L109.5,213.966L111,214.615L112.5,215.639L114,213.856L115.5,211.07L117,211.966L118.5,217.36L120,213.283L121.5,211.752L123,219.742L124.5,213.193L126,213.667L127.5,216.36L129,216.335L130.5,216.926L132,211.696L133.5,209.429L135,216.577L136.5,215.196L138,213.137L139.5,208.159L141,206.716L142.5,218.54L144,217.947L145.5,213.266L147,213.64L148.5,211.676L150,217.371L151.5,212.286L153,204.336L154.5,212.25L156,214.213L157.5,210.927L159,205.351L160.5,216.022L162,213.226L163.5,214.625L165,208.852L166.5,214.117L168,207.758L169.5,216.671L171,213.713L172.5,213.11L174,213.085L175.5,209.96L177,206.603L178.5,210.258L180,206.76L181.5,208.416L183,208.154L184.5,212.407L186,213.858L187.5,213.833L189,211.997L190.5,211.132L192,207.096L193.5,207.117L195,208.158L196.5,206.387L198,210.941L199.5,205.302L201,203.412L202.5,210.098L204,205.958L205.5,208.878L207,205.68L208.5,207.541L210,206.421L211.5,208.257L213,205.681L214.5,206.679L216,206.041L217.5,204.785L219,210.135L220.5,208.076L222,204.581L223.5,204.528L225,208.128L226.5,206.603L228,205.603L229.5,206.501L231,210.539L232.5,207.051L234,205.353L235.5,207.763L237,207.732L238.5,207.876L240,208.037L241.5,206.478L243,204.736L244.5,205.964L246,204.813L247.5,206.342L249,207.462L250.5,204.501L252,203.187L253.5,202.716L255,203.163L256.5,202.236L258,201.322L259.5,204.803L261,204.599L262.5,208.342L264,204.315L265.5,205.604L267,206.166L268.5,203.534L270,203.666L271.5,201.78L273,199.778L274.5,202.379L276,201.981L277.5,205.671L279,202.843L280.5,201.007L282,202.811L283.5,202.296L285,203.224L286.5,204.239L288,201.161L289.5,204.355L291,202.922L292.5,203.978L294,202.801L295.5,204.113L297,201.731L298.5,203.851" stroke="#e45756" stroke-width="2"/></g></g><path class="foreground" aria-hidden="true" d="" display="none"/></g></g></g><path class="foreground" aria-hidden="true" d="" display="none"/></g></g><g class="mark-group role-legend" role="graphics-symbol" aria-roledescription="legend" aria-label="Symbol legend titled 'model' for stroke color with 3 values: EMG 256k, EMG &amp; Audio, crossCon 256k"><g transform="translate(693,0)"><path class="background" aria-hidden="true" d="M0,0h127v73h-127Z" pointer-events="none"/><g><g class="mark-group role-legend-entry"><g transform="translate(0,21)"><path class="background" aria-hidden="true" d="M0,0h0v0h0Z" pointer-events="none"/><g><g class="mark-group role-scope" role="graphics-object" aria-roledescription="group mark container"><g transform="translate(0,0)"><path class="background" aria-hidden="true" d="M0,0h126.71875v16h-126.71875Z" pointer-events="none" opacity="1"/><g><g class="mark-symbol role-legend-symbol" pointer-events="none"><path transform="translate(8,8)" d="M-5,0L5,0" stroke="#4c78a8" stroke-width="1.5" opacity="1"/></g><g class="mark-text role-legend-label" pointer-events="none"><text text-anchor="start" transform="translate(20,13)" font-family="sans-serif" font-size="16px" fill="#000" opacity="1">EMG 256k</text></g></g><path class="foreground" aria-hidden="true" d="" pointer-events="none" display="none"/></g><g transform="translate(0,18)"><path class="background" aria-hidden="true" d="M0,0h126.71875v16h-126.71875Z" pointer-events="none" opacity="1"/><g><g class="mark-symbol role-legend-symbol" pointer-events="none"><path transform="translate(8,8)" d="M-5,0L5,0" stroke="#f58518" stroke-width="1.5" opacity="1"/></g><g class="mark-text role-legend-label" pointer-events="none"><text text-anchor="start" transform="translate(20,13)" font-family="sans-serif" font-size="16px" fill="#000" opacity="1">EMG &amp; Audio</text></g></g><path class="foreground" aria-hidden="true" d="" pointer-events="none" display="none"/></g><g transform="translate(0,36)"><path class="background" aria-hidden="true" d="M0,0h126.71875v16h-126.71875Z" pointer-events="none" opacity="1"/><g><g class="mark-symbol role-legend-symbol" pointer-events="none"><path transform="translate(8,8)" d="M-5,0L5,0" stroke="#e45756" stroke-width="1.5" opacity="1"/></g><g class="mark-text role-legend-label" pointer-events="none"><text text-anchor="start" transform="translate(20,13)" font-family="sans-serif" font-size="16px" fill="#000" opacity="1">crossCon 256k</text></g></g><path class="foreground" aria-hidden="true" d="" pointer-events="none" display="none"/></g></g></g><path class="foreground" aria-hidden="true" d="" pointer-events="none" display="none"/></g></g><g class="mark-text role-legend-title" pointer-events="none"><text text-anchor="start" transform="translate(0,13)" font-family="sans-serif" font-size="16px" font-weight="bold" fill="#000" opacity="1">model</text></g></g><path class="foreground" aria-hidden="true" d="" pointer-events="none" display="none"/></g></g></g><path class="foreground" aria-hidden="true" d="" display="none"/></g></g></g></svg>